<svg width="614" height="469" viewBox="0 0 614 469" fill="none" xmlns="http://www.w3.org/2000/svg">
<path d="M179.081 58.1803C175.272 59.0914 171.03 62.3019 168.952 65.8161C166.874 69.3738 166.658 71.2394 166.658 85.1228V98.0518H148.044H129.43V114.321V130.591H148.001H166.614L166.744 144.561L166.874 158.575L168.259 161.482C169.904 164.996 172.675 167.816 176.094 169.508L178.562 170.723H343.271H507.981L510.448 169.508C513.781 167.859 516.682 164.866 518.327 161.395L519.669 158.575L519.798 144.561L519.928 130.591H536.161H552.351V114.321V98.0518H536.161H519.928L519.798 84.2551C519.669 71.0224 519.625 70.415 518.673 68.0288C517.244 64.5146 513.998 61.0871 510.448 59.3517L507.548 57.9199L344.137 57.8332C249.856 57.8332 180.033 57.9633 179.081 58.1803Z" fill="#FFFF"/>
<path d="M176.83 188.164C174.103 188.988 170.553 191.375 169.038 193.327C168.432 194.151 167.393 195.93 166.744 197.318L165.575 199.791L165.446 213.762L165.316 227.775H147.351H129.43V244.045V260.315H147.351H165.316L165.446 274.285L165.575 288.298L166.744 290.771C168.995 295.587 173.367 299.145 178.345 300.229C180.12 300.576 207.564 300.663 286.564 300.576L392.403 300.446L395.303 299.058C398.853 297.366 401.84 294.459 403.355 291.205L404.523 288.732L404.653 274.502L404.783 260.315H419.89H435.041V244.045V227.775L420.02 227.688L404.956 227.558L404.74 213.458L404.523 199.358L403.095 196.451C401.45 193.067 398.766 190.463 395.216 188.771L392.836 187.643L285.915 187.557C190.985 187.47 178.735 187.557 176.83 188.164Z" fill="#FFFF"/>
<path d="M173.713 316.716C167.653 318.148 162.632 323.528 161.463 329.819C161.203 331.033 161.03 337.541 161.03 344.309V356.631H145.23H129.43V372.901V389.17H145.187H160.987L161.117 402.923C161.29 415.332 161.376 416.937 162.112 418.803C164.06 423.575 167.956 427.22 172.631 428.651C175.488 429.519 176.267 429.519 249.121 429.432L322.71 429.302L325.523 427.957C329.116 426.222 331.8 423.532 333.488 419.974L334.83 417.154L334.96 403.14L335.09 389.17H352.838H370.543V372.901V356.631H352.838H335.09L334.96 342.617L334.83 328.647L333.488 325.827C331.8 322.226 329.116 319.536 325.523 317.844L322.71 316.499L248.904 316.412C208.3 316.412 174.493 316.499 173.713 316.716Z" fill="#FFFF"/>
</svg>
